<?xml version="1.0" standalone="no"?>
<!DOCTYPE svg PUBLIC "-//W3C//DTD SVG 20010904//EN"
 "http://www.w3.org/TR/2001/REC-SVG-20010904/DTD/svg10.dtd">
<svg version="1.0" xmlns="http://www.w3.org/2000/svg"
 width="452.000000pt" height="452.000000pt" viewBox="0 0 452.000000 452.000000"
 preserveAspectRatio="xMidYMid meet">
<metadata>
Created by potrace 1.14, written by Peter Selinger 2001-2017
</metadata>
<g transform="translate(0.000000,452.000000) scale(0.100000,-0.100000)"
fill="#000000" stroke="none">
<path d="M2110 4109 c-23 -6 -23 -7 -3 -8 12 -1 24 -5 28 -10 5 -10 -5 -14
-65 -27 -34 -7 -34 -8 -10 -15 15 -5 5 -6 -24 -2 -35 4 -47 3 -42 -6 5 -7 -1
-11 -16 -11 -32 0 -195 -56 -235 -81 -18 -11 -40 -33 -49 -48 -19 -32 -88 -56
-133 -46 -26 5 -32 3 -45 -23 -11 -22 -12 -32 -3 -41 8 -8 7 -11 -5 -11 -11 0
-15 -6 -11 -20 3 -12 -4 -33 -20 -53 -29 -38 -59 -120 -51 -141 3 -8 1 -17 -4
-20 -10 -6 -7 -156 3 -204 4 -15 0 -25 -10 -28 -11 -5 -13 -10 -5 -19 8 -10 7
-16 -7 -24 -14 -8 -15 -12 -6 -22 9 -9 9 -17 1 -32 -7 -15 -7 -45 3 -111 7
-50 13 -111 15 -136 1 -25 6 -61 11 -80 l10 -35 8 35 c9 41 25 72 43 83 7 5
10 12 8 16 -10 16 52 10 73 -8 l22 -19 -23 -7 c-34 -11 -58 -35 -58 -60 0 -11
-6 -27 -12 -34 -11 -10 -9 -15 7 -24 31 -19 55 -17 55 4 0 11 5 19 10 19 6 0
10 -6 10 -14 0 -20 26 -38 55 -38 14 0 25 -5 25 -10 0 -6 -9 -8 -19 -5 -11 2
-35 1 -53 -3 -30 -8 -31 -9 -10 -15 12 -4 22 -14 22 -21 0 -8 6 -14 14 -14 19
0 40 -26 26 -35 -21 -13 -10 -27 18 -20 49 12 73 36 104 101 22 48 29 74 25
102 -2 21 2 49 10 64 29 58 -30 93 -169 102 -37 2 -70 0 -73 -5 -4 -5 -14 -9
-23 -9 -15 0 -15 2 -2 10 9 6 10 10 3 10 -6 0 -21 -12 -32 -26 l-21 -27 0 34
c0 131 72 379 128 441 19 21 41 38 48 38 8 0 19 9 26 21 7 11 36 33 63 47 48
25 57 26 205 27 154 0 272 -19 308 -48 8 -6 32 -12 55 -15 23 -2 51 -11 61
-20 18 -15 19 -16 13 -1 -4 13 -1 16 14 12 10 -3 19 -12 19 -20 0 -7 6 -13 13
-12 23 4 96 -36 108 -58 7 -13 19 -23 26 -23 8 0 11 5 7 13 -5 9 -4 9 5 1 6
-6 13 -28 14 -49 1 -24 8 -40 17 -43 13 -5 13 -3 1 11 -7 10 -9 17 -3 17 12 0
38 -30 26 -30 -5 0 -4 -4 1 -8 6 -4 18 -23 27 -42 12 -26 17 -30 18 -15 0 18
2 17 14 -5 8 -17 10 -29 3 -38 -7 -9 -6 -11 7 -6 11 4 4 -16 -25 -72 -22 -43
-45 -84 -50 -90 -11 -13 -13 -50 -6 -81 3 -13 2 -23 -2 -23 -5 0 -11 11 -15
23 -7 29 -36 31 -36 3 0 -16 2 -18 9 -7 7 11 10 9 15 -7 4 -12 19 -23 37 -27
20 -5 29 -12 25 -20 -2 -8 6 -21 19 -29 58 -38 96 -198 73 -307 -8 -42 -9 -64
-1 -81 8 -18 8 -30 -2 -48 -7 -13 -11 -31 -8 -39 4 -12 3 -13 -4 -3 -12 17
-28 -1 -39 -42 -5 -20 -9 -24 -15 -15 -6 11 -9 10 -15 -4 -10 -26 -22 -20 -26
13 -2 22 -6 27 -17 21 -11 -7 -11 -13 3 -32 29 -42 15 -82 -21 -59 -16 10 -15
11 5 7 23 -5 26 0 16 26 -3 9 -14 12 -30 9 -14 -2 -24 0 -24 7 0 6 -6 11 -14
11 -9 0 -12 -8 -8 -26 3 -19 7 -22 13 -12 7 10 9 8 9 -7 0 -33 -12 -65 -21
-59 -5 3 -9 0 -9 -6 0 -6 -5 -8 -11 -5 -7 5 -9 -11 -5 -48 3 -38 0 -61 -10
-74 -12 -16 -13 -14 -7 17 6 30 5 33 -8 20 -27 -29 -41 -67 -34 -91 7 -21 5
-20 -18 6 -18 22 -23 34 -16 47 7 13 5 16 -11 15 -11 -1 -20 -8 -21 -17 -1 -8
-5 -4 -9 10 -4 14 -8 18 -9 10 -1 -9 -17 -23 -36 -32 -33 -15 -36 -15 -45 2
-6 10 -10 25 -10 32 0 18 -68 88 -85 88 -7 0 -15 6 -18 13 -3 9 -11 9 -37 0
-20 -8 -38 -9 -44 -4 -6 5 -30 8 -53 7 -41 -2 -43 0 -55 33 -16 47 -16 71 -1
97 6 11 17 41 23 65 6 24 13 51 16 60 3 11 -3 18 -16 22 -17 4 -20 0 -20 -29
0 -55 -47 -69 -113 -34 -35 19 -44 20 -100 9 -34 -7 -63 -13 -65 -15 -2 -1 3
-13 12 -26 15 -23 15 -25 -24 -49 -22 -13 -39 -31 -37 -39 5 -31 -55 -62 -73
-39 -5 7 -35 12 -61 10 -9 -1 -22 -21 -32 -48 -18 -52 -23 -99 -8 -74 5 8 8
-2 6 -28 -1 -23 -5 -44 -9 -48 -3 -3 -1 -12 5 -19 7 -9 6 -14 -2 -20 -7 -4
-14 -3 -16 3 -2 6 -15 23 -29 38 l-24 26 0 -24 c0 -14 10 -32 23 -41 12 -9 16
-14 10 -11 -14 6 -18 -17 -6 -29 4 -3 8 -12 9 -19 10 -68 83 -235 124 -282 34
-39 32 -53 -17 -113 -73 -91 -102 -122 -110 -121 -18 3 -30 -3 -63 -32 -19
-16 -47 -37 -63 -47 -15 -9 -30 -24 -33 -34 -3 -10 -13 -18 -22 -19 -14 0 -13
-2 3 -9 17 -7 15 -9 -12 -9 -18 -1 -44 -11 -60 -25 -16 -14 -41 -28 -56 -31
-23 -6 -26 -4 -21 9 4 10 12 15 19 12 12 -4 61 48 65 69 1 6 8 18 17 27 14 16
14 18 -2 24 -23 9 -189 -22 -193 -36 -2 -5 -12 -10 -23 -10 -10 0 -19 -6 -19
-14 0 -16 -41 -32 -109 -42 -36 -6 -54 -18 -109 -73 -36 -36 -95 -101 -130
-146 -36 -44 -79 -93 -96 -110 -17 -16 -47 -50 -66 -75 -34 -44 -62 -71 -68
-66 -6 6 60 122 78 138 24 20 27 58 4 58 -34 0 -104 -52 -104 -78 0 -8 -9 -27
-21 -44 -24 -33 -18 -48 13 -29 17 10 19 10 16 -1 -3 -7 -14 -14 -26 -16 -25
-4 -30 -22 -7 -22 20 0 19 -7 -5 -32 -10 -12 -18 -24 -15 -27 2 -4 -1 -13 -6
-21 -6 -10 -8 17 -3 80 5 84 12 126 31 195 5 18 3 18 -10 5 -22 -22 -66 -107
-60 -114 4 -3 1 -6 -5 -6 -6 0 -14 -21 -18 -47 -4 -26 -15 -62 -25 -80 -10
-18 -19 -35 -19 -38 0 -3 0 -12 0 -20 0 -8 -5 -15 -11 -15 -8 0 -10 15 -7 44
5 38 3 44 -12 43 -9 0 -17 -8 -16 -15 1 -8 -5 -17 -11 -19 -9 -3 -13 7 -13 31
0 19 -5 38 -10 41 -6 4 -10 3 -9 -2 4 -20 -2 -33 -15 -33 -14 0 -39 -54 -29
-63 3 -3 2 -11 -2 -17 -5 -7 -10 -8 -14 -3 -3 6 -25 12 -49 16 l-42 5 0 -394
0 -394 998 0 999 0 12 26 c6 14 8 30 5 36 -4 6 5 20 20 33 14 12 23 25 19 29
-4 4 3 9 16 13 14 3 20 11 17 20 -3 7 1 16 10 20 13 5 13 7 2 14 -10 7 -9 9 4
9 10 0 24 14 33 30 9 17 20 30 25 30 6 0 10 11 10 25 0 14 5 25 10 25 12 0 50
37 49 47 -4 28 2 45 16 39 10 -3 15 1 15 13 0 28 28 34 41 10 15 -29 24 -15
24 38 0 28 5 48 13 50 7 3 12 -5 12 -21 0 -30 5 -32 26 -12 18 19 18 27 -1 20
-11 -5 -13 -2 -9 10 5 13 10 14 27 4 19 -10 20 -9 10 4 -10 11 -9 19 3 36 8
12 22 22 30 22 15 0 39 18 42 33 1 4 5 7 10 7 4 0 8 -3 8 -7 9 -48 27 -66 38
-37 3 8 2 12 -4 9 -15 -9 -12 8 5 31 15 20 20 12 16 -29 -2 -18 43 -42 63 -33
6 2 3 5 -6 5 -10 1 -18 6 -18 11 0 6 -7 10 -16 10 -11 0 -14 5 -10 16 3 9 6
18 6 20 0 2 5 4 10 4 6 0 10 -7 10 -15 0 -18 16 -20 24 -2 3 8 11 5 24 -10 25
-28 35 -29 27 -3 -4 11 -2 20 4 20 6 0 11 -9 11 -20 0 -11 5 -20 11 -20 6 0 9
7 6 15 -4 8 -1 18 5 21 8 5 5 10 -8 15 -16 6 -15 8 9 8 23 1 27 5 27 31 0 17
5 30 11 30 5 0 8 3 6 8 -3 4 -1 16 3 27 6 17 8 15 12 -13 2 -17 1 -32 -3 -32
-4 0 -6 -11 -5 -25 2 -17 -3 -26 -15 -30 -22 -7 -23 -18 -9 -46 9 -15 7 -21
-5 -25 -9 -4 -27 -28 -41 -55 -13 -27 -29 -50 -34 -50 -6 -1 -14 -3 -20 -4 -5
-1 -17 -3 -25 -4 -9 0 -20 -12 -24 -25 -11 -27 -80 -73 -82 -53 0 7 -5 -3 -10
-21 -5 -17 -16 -32 -24 -32 -8 0 -15 -4 -15 -9 0 -5 -11 -12 -25 -15 -14 -4
-25 -11 -25 -16 0 -5 -7 -6 -17 -3 -11 4 -14 3 -9 -5 4 -7 0 -15 -9 -18 -12
-5 -13 -9 -4 -20 9 -11 8 -14 -5 -14 -9 0 -16 -5 -16 -10 0 -6 -11 -15 -25
-20 -14 -5 -25 -14 -25 -19 0 -5 -11 -12 -25 -15 -19 -5 -25 -13 -25 -33 0
-21 -3 -24 -12 -15 -9 9 -16 6 -30 -16 -10 -15 -18 -35 -18 -44 0 -10 -4 -18
-10 -18 -5 0 -10 8 -11 18 0 10 -3 12 -6 5 -2 -7 -11 -13 -19 -13 -8 0 -14 -4
-14 -10 0 -7 194 -10 561 -10 494 0 560 2 549 15 -9 11 -17 12 -31 4 -14 -7
-20 -6 -23 3 -2 7 -9 28 -15 45 -5 18 -6 35 -2 38 10 5 34 -21 46 -50 8 -19 9
-19 12 3 3 12 11 22 19 22 8 0 14 5 14 10 0 6 5 10 10 10 6 0 10 -6 10 -14 0
-7 9 -16 21 -19 13 -4 18 -10 14 -17 -6 -9 -9 -9 -15 0 -5 8 -9 7 -14 -5 -18
-47 -45 -45 593 -45 470 0 600 3 604 13 4 9 6 9 6 0 1 -7 10 -13 21 -13 19 0
20 6 20 180 -1 110 -5 180 -11 180 -6 0 -6 7 1 19 5 11 10 28 9 38 0 10 -3 13
-6 6 -2 -7 -12 -13 -21 -14 -12 0 -13 -2 -4 -6 16 -6 -34 -43 -58 -43 -12 0
-12 2 -1 9 19 12 -3 24 -32 17 -12 -3 -16 -3 -9 0 6 3 10 10 7 15 -3 4 12 2
35 -6 32 -11 40 -12 40 -1 0 7 10 21 23 30 16 13 22 28 24 62 1 24 -3 44 -8
44 -6 0 -6 8 1 19 7 13 7 22 0 26 -5 3 -10 1 -10 -4 0 -6 -7 -11 -15 -11 -8 0
-15 -5 -15 -11 0 -5 -5 -7 -12 -3 -7 5 -9 2 -5 -9 3 -9 0 -18 -9 -21 -9 -3
-12 -1 -9 4 3 6 1 10 -4 10 -6 0 -11 -6 -11 -14 0 -8 -6 -17 -12 -20 -7 -3 -4
-5 7 -4 11 0 36 -6 55 -15 37 -17 28 -23 -13 -8 -18 7 -24 6 -24 -4 0 -8 3
-14 6 -13 3 0 16 0 29 -1 22 -1 22 -2 7 -18 -13 -13 -19 -13 -25 -3 -6 10 -9
9 -12 -1 -3 -8 -8 0 -12 18 -4 17 -13 34 -20 36 -7 3 -16 14 -18 25 -4 15 -2
19 8 15 8 -3 14 0 14 6 0 6 7 11 15 11 13 0 13 2 3 14 -7 7 -19 11 -26 9 -10
-4 -10 0 -1 20 10 22 40 41 61 38 3 0 11 6 18 13 8 11 8 16 -1 22 -7 4 -15 2
-17 -4 -2 -7 -10 -12 -18 -12 -9 0 -12 -5 -8 -11 4 -8 0 -9 -15 -4 -12 4 -21
2 -21 -4 0 -6 -9 -11 -21 -11 -11 0 -17 5 -14 10 4 6 11 8 16 5 5 -4 9 -1 9 4
0 6 7 11 15 11 8 0 15 5 15 10 0 6 8 10 18 11 11 1 9 4 -8 9 -36 11 -52 11
-45 0 3 -5 0 -10 -8 -10 -8 0 -17 9 -20 21 -4 14 -2 18 6 11 7 -5 21 -6 32 -2
18 7 16 9 -12 15 -25 6 -29 10 -20 20 9 9 14 9 25 -2 17 -17 19 -17 45 7 20
19 22 20 28 3 6 -18 -19 -46 -33 -37 -5 3 -8 0 -8 -5 0 -6 9 -11 21 -11 11 0
18 4 15 9 -4 5 7 12 23 16 31 7 54 46 32 53 -6 2 -11 8 -11 13 0 6 5 7 10 4 6
-4 10 45 10 139 0 80 -1 146 -2 146 -2 0 -66 11 -142 25 -152 27 -191 30 -181
15 3 -5 1 -10 -4 -10 -6 0 -11 8 -11 18 0 10 -23 56 -52 102 -55 89 -138 178
-207 220 -22 14 -41 28 -41 32 0 4 24 12 54 18 30 6 80 27 111 46 32 19 69 37
82 40 13 4 26 10 29 15 3 6 7 67 10 137 11 377 61 578 185 754 26 36 24 52
-10 81 -37 31 -127 44 -371 52 -96 4 -223 13 -282 20 -58 8 -186 19 -283 25
-98 6 -188 15 -201 20 -22 9 -23 14 -18 57 3 26 13 89 24 138 28 133 43 295
31 326 -5 15 -14 51 -20 82 -5 31 -24 86 -41 122 -17 36 -33 79 -36 95 -4 16
-14 37 -23 47 -9 10 -29 36 -44 58 -48 70 -76 109 -92 132 -8 12 -39 32 -68
46 -29 13 -76 40 -105 61 -28 20 -56 36 -61 36 -4 0 -19 8 -32 19 -13 10 -51
24 -84 31 -33 7 -73 20 -90 28 -30 15 -62 24 -165 42 -31 5 -60 17 -68 27 -9
13 -15 14 -24 5 -7 -7 -25 -12 -40 -12 -22 0 -31 7 -43 36 -8 19 -19 33 -24
30 -5 -3 -8 1 -7 10 1 21 -32 33 -64 23z m45 -49 c11 -18 -5 -31 -21 -16 -8 8
-14 17 -14 20 0 10 28 7 35 -4z m-708 -477 c-3 -10 -5 -4 -5 12 0 17 2 24 5
18 2 -7 2 -21 0 -30z m-15 -89 c-9 -16 -10 -14 -9 8 1 15 6 23 11 18 4 -4 4
-16 -2 -26z m153 -564 c3 -5 -1 -10 -9 -10 -8 0 -21 -7 -30 -15 -8 -9 -17 -11
-21 -6 -3 5 5 17 17 25 26 19 35 20 43 6z m1524 -264 c0 -20 -1 -20 -9 2 -5
12 -14 22 -20 22 -5 0 -10 7 -10 17 0 14 2 14 20 -2 11 -10 20 -28 19 -39z
m-98 -87 c16 -11 29 -28 30 -37 0 -14 2 -14 8 2 5 14 10 16 15 7 6 -9 13 -8
28 6 21 18 21 18 14 -22 -7 -40 -72 -148 -85 -141 -3 2 -7 -8 -8 -22 -4 -64
-13 -116 -24 -128 -16 -20 -103 -18 -119 1 -17 21 -26 115 -11 115 6 0 11 10
11 22 0 29 28 58 56 58 36 0 64 37 64 84 0 45 -7 60 -30 69 -12 4 -11 6 3 6
11 1 32 -8 48 -20z m-85 -90 c8 -14 -11 -33 -25 -25 -11 7 -4 36 9 36 5 0 12
-5 16 -11z m-1183 -339 c32 0 97 -20 97 -29 0 -12 -37 -23 -88 -25 -56 -3 -72
-21 -74 -79 0 -41 -3 -47 -22 -47 -14 0 -17 -3 -9 -8 9 -6 7 -12 -7 -25 -23
-19 -34 -22 -25 -7 4 6 2 17 -5 25 -19 23 -8 155 14 155 6 0 20 13 30 29 17
25 24 28 44 20 13 -5 33 -9 45 -9z m607 -49 c0 -5 -9 -13 -20 -16 -11 -3 -20
-13 -20 -21 0 -8 -4 -14 -10 -14 -16 0 -12 9 16 35 30 27 34 29 34 16z m90
-31 c0 -5 -4 -10 -10 -10 -5 0 -10 5 -10 10 0 6 5 10 10 10 6 0 10 -4 10 -10z
m-327 -39 c-2 -6 1 -11 6 -11 5 0 7 -9 4 -20 -3 -11 -9 -20 -14 -20 -5 0 -9
-9 -9 -20 0 -19 -4 -21 -38 -24 -7 -1 -16 -6 -20 -11 -9 -14 -92 -35 -92 -24
0 5 -4 9 -10 9 -5 0 -10 -7 -10 -15 0 -8 -4 -15 -10 -15 -14 0 -13 7 6 35 11
16 14 35 10 52 -5 21 -4 24 4 13 8 -12 10 -8 8 15 -2 24 1 29 15 27 10 -2 17
3 17 14 0 10 5 14 15 10 8 -3 15 -1 15 4 0 15 33 17 70 4 19 -6 34 -17 33 -23z
m147 19 c0 -5 -5 -10 -11 -10 -5 0 -7 5 -4 10 3 6 8 10 11 10 2 0 4 -4 4 -10z
m150 0 c0 -5 -2 -10 -4 -10 -3 0 -8 5 -11 10 -3 6 -1 10 4 10 6 0 11 -4 11
-10z m-769 -143 c-10 -9 -11 -8 -5 6 3 10 9 15 12 12 3 -3 0 -11 -7 -18z
m-181 -421 c0 -2 -7 -9 -15 -16 -13 -11 -14 -10 -9 4 5 14 24 23 24 12z m396
-46 c16 0 39 -34 48 -72 6 -27 5 -27 -19 -16 -14 6 -25 17 -25 24 0 7 -4 14
-9 16 -5 2 -11 19 -15 38 -3 19 -3 29 0 23 3 -7 12 -13 20 -13z m1884 0 c0 -5
-2 -10 -4 -10 -3 0 -8 5 -11 10 -3 6 -1 10 4 10 6 0 11 -4 11 -10z m50 -80 c0
-8 -9 0 -20 18 -11 18 -20 36 -20 40 1 14 40 -43 40 -58z m-230 46 c0 -3 -4
-8 -10 -11 -5 -3 -10 -1 -10 4 0 6 5 11 10 11 6 0 10 -2 10 -4z m-2194 -54
c-18 -16 -18 -16 -6 6 6 13 14 21 18 18 3 -4 -2 -14 -12 -24z m411 -59 c-1
-68 2 -95 16 -121 17 -31 95 -97 105 -88 6 7 -13 38 -24 38 -13 0 -51 28 -39
28 6 0 5 4 -1 8 -6 4 -9 21 -7 38 4 25 9 31 24 27 12 -4 25 1 33 12 7 10 18
15 24 11 7 -4 12 -1 12 8 0 22 17 20 42 -4 17 -15 24 -17 30 -8 5 8 8 3 8 -14
0 -17 5 -28 14 -28 7 0 16 -8 18 -18 5 -18 40 -24 54 -9 12 12 24 8 24 -8 0
-18 16 -20 24 -2 5 10 7 10 12 0 3 -7 10 -13 15 -13 6 0 8 3 6 8 -3 4 11 8 30
10 19 1 43 7 53 12 15 8 19 7 17 -9 -1 -18 -88 -109 -184 -193 -22 -20 -47
-49 -55 -64 -14 -29 -81 -85 -142 -118 l-35 -19 -58 27 c-84 38 -88 41 -86 67
15 211 24 312 32 349 18 85 35 160 38 160 1 0 1 -39 0 -87z m-638 -65 c-57
-56 -106 -102 -109 -103 -3 0 -15 -7 -28 -14 -22 -12 -23 -11 -13 8 6 11 25
28 41 38 17 9 30 21 30 25 0 11 82 98 92 98 4 0 24 11 44 25 20 14 39 25 42
25 2 0 -42 -46 -99 -102z m201 81 c-7 -11 -14 -18 -17 -15 -3 3 0 12 7 21 18
21 23 19 10 -6z m-416 -57 c-8 -20 -19 -44 -24 -54 -14 -24 -21 -101 -11 -117
7 -10 -2 -20 -33 -36 -22 -12 -46 -32 -52 -44 -13 -25 -34 -49 -34 -38 0 6 5
18 44 109 53 121 73 178 62 178 -7 0 -7 3 -1 8 6 4 17 20 25 35 13 25 15 27
26 12 10 -13 9 -24 -2 -53z m986 38 c0 -5 -4 -10 -10 -10 -5 0 -10 5 -10 10 0
6 5 10 10 10 6 0 10 -4 10 -10z m-605 -40 c-9 -16 -12 -30 -9 -30 4 0 -3 -9
-16 -20 -36 -31 -35 -16 1 34 38 53 46 59 24 16z m512 -57 c-3 -10 -5 -4 -5
12 0 17 2 24 5 18 2 -7 2 -21 0 -30z m530 21 c-3 -3 -12 -4 -19 -1 -8 3 -5 6
6 6 11 1 17 -2 13 -5z m-277 -14 c0 -5 -7 -10 -15 -10 -8 0 -15 5 -15 10 0 6
7 10 15 10 8 0 15 -4 15 -10z m1460 -40 c0 -5 -5 -10 -11 -10 -5 0 -7 5 -4 10
3 6 8 10 11 10 2 0 4 -4 4 -10z m-3030 -115 c0 -9 -9 -15 -21 -15 -18 0 -19 2
-9 15 7 8 16 15 21 15 5 0 9 -7 9 -15z m2550 5 c0 -5 -5 -10 -11 -10 -5 0 -7
5 -4 10 3 6 8 10 11 10 2 0 4 -4 4 -10z m144 -8 c-6 -4 -17 -22 -25 -39 -14
-34 -23 -40 -34 -24 -6 11 56 83 64 75 3 -3 1 -8 -5 -12z m-1804 -12 c0 -5 -4
-10 -10 -10 -5 0 -10 5 -10 10 0 6 5 10 10 10 6 0 10 -4 10 -10z m-925 -30
c-3 -5 -14 -10 -23 -10 -15 0 -15 2 -2 10 20 13 33 13 25 0z m905 0 c0 -5 -5
-10 -11 -10 -5 0 -7 5 -4 10 3 6 8 10 11 10 2 0 4 -4 4 -10z m-930 -34 c0 -3
-4 -8 -10 -11 -5 -3 -10 -1 -10 4 0 6 5 11 10 11 6 0 10 -2 10 -4z m2694 -39
c-3 -9 -12 -17 -20 -17 -11 0 -11 5 -2 25 12 27 33 20 22 -8z m-2371 3 c-5
-19 -23 -39 -23 -25 0 9 20 45 24 45 2 0 2 -9 -1 -20z m107 -85 c0 -8 -4 -15
-10 -15 -5 0 -7 7 -4 15 4 8 8 15 10 15 2 0 4 -7 4 -15z m2192 -21 c-3 -17 -8
-22 -15 -15 -7 7 -6 15 3 26 17 20 18 19 12 -11z m1292 1 c-25 -19 -35 -19
-28 0 4 8 16 15 27 15 20 0 20 0 1 -15z m-3944 -5 c0 -5 -5 -10 -11 -10 -5 0
-7 5 -4 10 3 6 8 10 11 10 2 0 4 -4 4 -10z m4016 -5 c4 -8 12 -15 19 -15 7 0
18 -7 25 -15 8 -9 8 -15 2 -15 -6 0 -18 -7 -27 -17 -13 -12 -23 -14 -43 -7
-15 5 -27 15 -27 21 0 6 -3 15 -7 19 -5 4 -8 0 -8 -9 0 -9 -7 -17 -17 -17 -9
0 -14 2 -12 5 2 2 15 18 29 34 27 32 57 39 66 16z m-1386 -28 c0 -18 -2 -19
-10 -7 -8 13 -12 13 -32 1 -22 -14 -22 -13 -8 5 31 39 50 40 50 1z m1460 12
c0 -5 -7 -9 -15 -9 -8 0 -15 7 -15 15 0 9 6 12 15 9 8 -4 15 -10 15 -15z
m-3663 -31 c-3 -8 -6 -5 -6 6 -1 11 2 17 5 13 3 -3 4 -12 1 -19z m733 -2 c0
-8 12 -17 26 -20 14 -4 33 -20 42 -36 9 -17 20 -30 25 -30 4 0 7 -14 7 -31 0
-17 -4 -28 -10 -24 -5 3 -10 17 -10 30 0 13 -4 27 -10 30 -5 3 -10 1 -10 -4 0
-6 -5 -11 -12 -11 -6 0 -9 3 -5 6 6 6 -40 54 -52 54 -3 0 -12 9 -19 21 -8 12
-9 18 -3 14 6 -3 11 -1 11 4 0 6 5 11 10 11 6 0 10 -6 10 -14z m-1193 -28 c-3
-7 -5 -2 -5 12 0 14 2 19 5 13 2 -7 2 -19 0 -25z m2323 22 c0 -5 -4 -10 -10
-10 -5 0 -10 5 -10 10 0 6 5 10 10 10 6 0 10 -4 10 -10z m-2625 -11 c11 -17
-1 -21 -15 -4 -8 9 -8 15 -2 15 6 0 14 -5 17 -11z m4425 0 c13 -9 13 -10 -2
-6 -9 3 -18 1 -21 -6 -2 -6 -6 -4 -10 6 -7 19 10 23 33 6z m-1833 -31 c-3 -8
-6 -5 -6 6 -1 11 2 17 5 13 3 -3 4 -12 1 -19z m-1850 -10 c-3 -8 -6 -5 -6 6
-1 11 2 17 5 13 3 -3 4 -12 1 -19z m-445 -23 l-4 -26 -16 22 c-12 17 -12 23
-1 29 19 13 27 4 21 -25z m2572 -12 c-9 -38 -13 -41 -30 -19 -12 17 -11 21 9
32 12 6 23 12 25 13 1 1 -1 -11 -4 -26z m-64 7 c0 -5 -8 -10 -17 -10 -15 0
-16 2 -3 10 19 12 20 12 20 0z m-1670 -16 c0 -2 -9 -19 -20 -39 -16 -29 -18
-40 -9 -57 11 -21 12 -21 22 -2 11 21 37 43 50 44 4 0 6 -12 5 -27 -2 -20 2
-28 16 -31 14 -3 17 0 13 11 -8 21 1 27 29 17 18 -7 22 -6 18 5 -3 8 3 16 15
20 12 3 21 10 21 15 0 4 17 6 38 5 20 -2 49 -4 64 -4 20 -1 25 -5 21 -20 -3
-14 2 -20 22 -25 14 -4 30 -4 35 -1 5 3 11 1 15 -5 9 -15 36 -12 55 5 18 16
50 11 50 -7 0 -20 -59 -114 -97 -154 -21 -22 -55 -61 -76 -87 -21 -26 -44 -47
-50 -47 -7 0 -20 -15 -30 -32 -11 -21 -34 -40 -62 -53 -24 -10 -47 -25 -49
-32 -7 -16 -27 -17 -24 -1 2 8 -9 11 -33 9 -34 -2 -57 12 -57 34 0 5 -5 11
-11 13 -6 2 -11 -1 -11 -7 0 -16 -23 -13 -46 5 -10 8 -13 12 -5 8 9 -4 12 -2
9 7 -3 8 -17 13 -32 12 -14 -1 -26 3 -26 8 0 6 18 9 42 7 34 -2 43 0 46 15 2
10 -3 17 -12 17 -9 0 -16 -5 -16 -11 0 -5 -5 -7 -10 -4 -8 5 -8 11 0 20 8 10
8 15 0 20 -7 4 -14 -2 -17 -14 -7 -28 -21 -26 -29 4 -3 14 -10 25 -16 25 -5 0
-7 -10 -3 -22 6 -22 6 -22 -9 -4 -25 31 -20 46 15 46 17 0 28 4 24 10 -3 6
-15 10 -25 10 -14 0 -18 5 -14 18 3 9 -1 6 -9 -7 -17 -29 -32 -13 -23 25 6 23
-5 30 -37 25 -4 -1 -3 7 2 18 8 13 17 17 32 14 14 -4 26 0 35 11 13 18 34 14
34 -5 0 -6 -4 -7 -10 -4 -6 3 -7 -1 -4 -9 7 -19 44 -3 44 19 0 8 5 15 11 15 8
0 8 4 -1 15 -10 12 -7 15 16 21 27 7 27 7 6 15 -29 11 -28 29 1 30 16 1 18 2
5 6 -10 2 -18 8 -18 13 0 20 24 60 36 60 8 0 11 6 8 14 -4 11 0 13 15 9 12 -3
21 -7 21 -9z m1400 -4 c0 -5 -5 -10 -11 -10 -5 0 -7 -4 -4 -10 3 -6 -1 -7 -9
-4 -23 9 -20 34 4 34 11 0 20 -4 20 -10z m95 -12 c-19 -11 -30 -5 -21 11 4 6
14 7 22 4 15 -5 14 -7 -1 -15z m92 6 c-3 -3 -12 -4 -19 -1 -8 3 -5 6 6 6 11 1
17 -2 13 -5z m83 -4 c0 -5 -4 -10 -10 -10 -5 0 -10 5 -10 10 0 6 5 10 10 10 6
0 10 -4 10 -10z m-30 -50 c0 -5 -5 -10 -11 -10 -5 0 -7 5 -4 10 3 6 8 10 11
10 2 0 4 -4 4 -10z m-2 -22 c12 0 22 -4 22 -9 0 -11 5 -10 -62 -15 -53 -4 -57
-3 -55 17 1 18 6 20 37 14 19 -4 45 -7 58 -7z m52 2 c0 -5 -4 -10 -10 -10 -5
0 -10 5 -10 10 0 6 5 10 10 10 6 0 10 -4 10 -10z m-1972 -65 c29 -8 28 -26 -3
-53 -24 -21 -25 -21 -25 -2 0 11 7 20 15 20 8 0 15 5 15 11 0 6 -7 9 -15 5 -8
-3 -15 -1 -15 4 0 6 -7 10 -15 10 -8 0 -15 5 -15 11 0 6 8 8 18 5 9 -2 27 -7
40 -11z m3570 -3 c-10 -2 -18 -8 -18 -13 0 -5 -7 -9 -15 -9 -12 0 -13 4 -4 19
8 12 19 16 33 13 18 -5 18 -7 4 -10z m-3463 -22 c3 -5 -1 -10 -10 -10 -9 0
-13 5 -10 10 3 6 8 10 10 10 2 0 7 -4 10 -10z m1230 -40 c3 -5 -1 -10 -10 -10
-9 0 -13 5 -10 10 3 6 8 10 10 10 2 0 7 -4 10 -10z m-1253 -114 c-3 -5 -9 -1
-13 10 -12 31 -10 39 5 19 8 -11 12 -24 8 -29z m3473 6 c-3 -3 -11 0 -18 7 -9
10 -8 11 6 5 10 -3 15 -9 12 -12z m-68 2 c-3 -3 -12 -4 -19 -1 -8 3 -5 6 6 6
11 1 17 -2 13 -5z m-2367 -8 c0 -2 -7 -6 -15 -10 -8 -3 -15 -1 -15 4 0 6 7 10
15 10 8 0 15 -2 15 -4z m2414 -21 c3 -8 1 -15 -4 -15 -6 0 -10 7 -10 15 0 8 2
15 4 15 2 0 6 -7 10 -15z m-48 -30 c-8 -8 -17 -15 -20 -15 -3 0 -3 7 0 15 4 8
13 15 21 15 12 0 12 -2 -1 -15z m54 -2 c0 -3 -6 -11 -14 -19 -13 -12 -15 -12
-13 4 1 15 27 29 27 15z m-2480 -33 c0 -5 -4 -10 -10 -10 -5 0 -10 5 -10 10 0
6 5 10 10 10 6 0 10 -4 10 -10z m2428 -12 c-6 -16 -21 -14 -24 4 -1 11 3 15
12 11 8 -3 13 -10 12 -15z m67 -8 c19 -8 19 -9 -2 -9 -12 -1 -25 4 -28 9 -7
12 2 12 30 0z m19 -45 c-4 -8 -10 -15 -15 -15 -4 0 -6 7 -3 15 4 8 10 15 15
15 4 0 6 -7 3 -15z m-2578 -41 c-3 -8 -10 -12 -16 -9 -7 4 -6 14 2 28 12 24
24 8 14 -19z m1269 -24 c3 -5 1 -10 -4 -10 -6 0 -11 5 -11 10 0 6 2 10 4 10 3
0 8 -4 11 -10z m262 -22 c-3 -8 -6 -5 -6 6 -1 11 2 17 5 13 3 -3 4 -12 1 -19z
m-1555 -20 c-9 -9 -12 -7 -12 12 0 19 3 21 12 12 9 -9 9 -15 0 -24z m1218 -22
c0 -8 -4 -18 -10 -21 -5 -3 -10 3 -10 14 0 12 5 21 10 21 6 0 10 -6 10 -14z
m1370 4 c0 -5 -7 -7 -15 -4 -8 4 -15 8 -15 10 0 2 7 4 15 4 8 0 15 -4 15 -10z
m-1160 -34 c0 -3 -4 -8 -10 -11 -5 -3 -10 -1 -10 4 0 6 5 11 10 11 6 0 10 -2
10 -4z"/>
<path d="M2982 2425 c-23 -17 -29 -35 -11 -35 15 0 41 28 37 40 -2 6 -13 4
-26 -5z"/>
<path d="M1915 1080 c3 -5 8 -10 11 -10 2 0 4 5 4 10 0 6 -5 10 -11 10 -5 0
-7 -4 -4 -10z"/>
<path d="M4410 800 c0 -5 -8 -7 -17 -3 -14 5 -12 0 6 -20 14 -15 27 -27 30
-27 3 0 0 5 -7 12 -14 14 -16 32 -2 23 6 -3 7 1 4 9 -7 18 -14 21 -14 6z"/>
<path d="M1245 504 c-25 -33 -25 -48 -3 -52 12 -2 21 6 28 23 21 56 8 72 -25
29z"/>
<path d="M1147 443 c-4 -3 -7 -16 -7 -27 0 -19 1 -19 17 -3 12 11 14 20 7 27
-6 6 -13 7 -17 3z"/>
<path d="M1184 431 c3 -5 -1 -14 -9 -21 -8 -7 -15 -19 -15 -26 0 -12 5 -11 25
2 28 18 34 54 9 54 -8 0 -13 -4 -10 -9z"/>
<path d="M1227 408 c-8 -28 -8 -27 26 -21 27 5 27 6 11 24 -22 25 -30 24 -37
-3z"/>
<path d="M1107 391 c-17 -6 -17 -8 -3 -20 13 -11 17 -11 22 3 8 21 4 25 -19
17z"/>
<path d="M1307 386 c-3 -8 -14 -12 -25 -9 -14 3 -23 -4 -36 -32 -19 -40 -15
-68 8 -59 19 7 37 -27 29 -57 -6 -23 -6 -23 10 -7 17 17 17 53 1 80 -5 8 -2 9
9 5 11 -4 17 -1 17 9 0 8 4 12 10 9 5 -3 12 6 16 20 3 14 10 25 15 25 5 0 9 4
9 10 0 5 -6 7 -14 4 -8 -3 -17 -1 -21 5 -9 15 -22 14 -28 -3z m-13 -41 c-6
-16 -24 -21 -24 -7 0 11 11 22 21 22 5 0 6 -7 3 -15z m-29 -35 c3 -5 1 -10 -4
-10 -6 0 -11 5 -11 10 0 6 2 10 4 10 3 0 8 -4 11 -10z"/>
<path d="M1175 260 c3 -5 12 -10 20 -10 8 0 17 5 20 10 4 6 -5 10 -20 10 -15
0 -24 -4 -20 -10z"/>
<path d="M1232 259 c2 -7 10 -15 17 -17 8 -3 12 1 9 9 -2 7 -10 15 -17 17 -8
3 -12 -1 -9 -9z"/>
<path d="M1960 3007 c0 -5 -3 -6 -8 -3 -4 2 -16 -3 -27 -11 -14 -11 -16 -17
-7 -20 6 -3 12 -9 12 -15 0 -5 9 -23 20 -39 18 -24 19 -34 10 -68 -5 -21 -7
-48 -3 -59 11 -26 70 -75 83 -67 5 3 10 1 10 -4 0 -6 5 -11 11 -11 6 0 27 -16
47 -36 54 -54 112 -69 112 -29 0 11 11 15 41 15 22 0 68 11 102 24 34 13 72
27 84 31 48 14 114 57 109 71 -3 8 -1 14 4 14 6 0 10 9 10 20 0 11 -5 20 -11
20 -5 0 -7 5 -4 10 3 6 0 10 -7 10 -8 0 -23 7 -34 16 -18 15 -18 15 8 10 15
-4 30 -2 33 4 3 5 0 10 -7 10 -9 0 -9 3 2 10 9 6 10 10 3 10 -6 0 -14 8 -16
18 -4 13 -5 12 -6 -5 -1 -14 -9 -23 -23 -25 -28 -4 -113 35 -121 55 -6 15 -23
19 -162 37 -100 13 -265 18 -265 7z m314 -232 c-3 -8 -15 -16 -27 -18 -17 -3
-15 -5 8 -6 27 -2 28 -3 8 -11 -12 -5 -34 -5 -50 0 -15 4 -20 9 -11 9 10 1 25
12 34 25 16 25 47 26 38 1z m-68 -132 c-10 -10 -19 5 -10 18 6 11 8 11 12 0 2
-7 1 -15 -2 -18z"/>
<path d="M2715 2509 c-4 -6 -5 -13 -2 -16 7 -7 27 6 27 18 0 12 -17 12 -25 -2z"/>
<path d="M1665 2470 c-6 -10 29 -50 45 -50 15 0 12 27 -6 44 -18 18 -30 20
-39 6z"/>
<path d="M2430 2178 c0 -10 5 -18 10 -18 6 0 10 -7 10 -15 0 -8 5 -15 10 -15
16 0 12 16 -10 41 -16 20 -19 21 -20 7z"/>
<path d="M2327 2163 c-4 -3 -7 -11 -7 -17 0 -6 5 -5 12 2 6 6 9 14 7 17 -3 3
-9 2 -12 -2z"/>
<path d="M593 1158 c-13 -6 -23 -15 -23 -20 0 -14 16 -9 41 12 26 21 17 25
-18 8z"/>
<path d="M422 1117 c-12 -13 -20 -26 -17 -29 3 -3 -1 -11 -10 -18 -9 -7 -14
-27 -14 -49 1 -25 3 -29 6 -13 6 33 31 60 76 83 42 22 47 34 15 43 -33 8 -32
8 -56 -17z"/>
<path d="M570 1111 c0 -6 4 -12 8 -15 5 -3 9 1 9 9 0 8 -4 15 -9 15 -4 0 -8
-4 -8 -9z"/>
<path d="M4474 688 c-7 -11 -5 -14 24 -22 16 -5 22 -3 22 7 0 17 -37 30 -46
15z"/>
<path d="M4495 630 c-4 -12 -15 -20 -28 -20 -16 0 -18 -3 -9 -9 10 -6 9 -10
-7 -14 -24 -6 -29 -27 -7 -27 24 0 46 12 40 21 -3 5 5 9 18 9 17 0 19 3 9 9
-11 7 -11 9 0 14 9 4 10 6 2 6 -7 1 -10 8 -7 16 4 8 4 15 1 15 -3 0 -9 -9 -12
-20z"/>
<path d="M2470 510 c0 -5 7 -7 15 -4 8 4 15 8 15 10 0 2 -7 4 -15 4 -8 0 -15
-4 -15 -10z"/>
<path d="M2530 509 c0 -5 5 -7 10 -4 6 3 10 8 10 11 0 2 -4 4 -10 4 -5 0 -10
-5 -10 -11z"/>
<path d="M2625 480 c-3 -5 1 -10 10 -10 9 0 13 5 10 10 -3 6 -8 10 -10 10 -2
0 -7 -4 -10 -10z"/>
<path d="M2555 450 c-3 -5 -1 -10 4 -10 6 0 11 5 11 10 0 6 -2 10 -4 10 -3 0
-8 -4 -11 -10z"/>
<path d="M2150 69 c0 -5 5 -7 10 -4 6 3 10 8 10 11 0 2 -4 4 -10 4 -5 0 -10
-5 -10 -11z"/>
<path d="M3240 40 c0 -19 3 -21 12 -12 9 9 9 15 0 24 -9 9 -12 7 -12 -12z"/>
</g>
</svg>
